<svg width="18" height="18" viewBox="0 0 18 18" fill="none" xmlns="http://www.w3.org/2000/svg">
<path d="M8.01486 1.00378C4.12974 1.01898 0.981114 4.19233 0.996311 8.07745C1.01151 11.9628 4.18486 15.1112 8.06998 15.096C11.9553 15.0808 15.1037 11.9077 15.0885 8.02233C15.0733 4.13721 11.9002 0.988584 8.01486 1.00378ZM8.0649 13.7952C4.89697 13.8076 2.30952 11.2403 2.29713 8.0724C2.28474 4.90447 4.85202 2.31699 8.01995 2.3046C11.1879 2.29221 13.7753 4.85949 13.7877 8.02742C13.8001 11.1954 11.2328 13.7828 8.0649 13.7952Z" fill="#363636"/>
<path d="M16.8366 15.8592L13.0929 12.1448C12.8379 11.8917 12.4264 11.8933 12.1733 12.1484C11.9201 12.4033 11.9218 12.8152 12.1768 13.0681L15.9205 16.7825C16.048 16.9091 16.2146 16.9719 16.3811 16.9713C16.5473 16.9706 16.7136 16.9064 16.8402 16.7789C17.0933 16.5241 17.0916 16.1121 16.8366 15.8592Z" fill="#363636"/>
</svg>
